<svg version="1.1" id="Capa_1" xmlns="http://www.w3.org/2000/svg" xmlns:xlink="http://www.w3.org/1999/xlink" x="0px" y="0px"
	 viewBox="0 0 450 350" xml:space="preserve">
<path style="fill:#72BE4F;" d="M203.607,52.591v26.328c0,2.99,2.494,5.388,5.48,5.242c60.058-2.931,118.206,30.332,155.368,74.074
	c1.692,1.992,1.679,4.913-0.048,6.875c-37.336,42.409-97.329,89.001-154.909,81.97c-3.133-0.383-5.892,2.049-5.892,5.205v12.187
	c0,2.703,2.048,4.986,4.74,5.229c3.608,0.326,7.311,0.508,11.126,0.508c67.211,0,116.219-33.591,163.361-73.934
	c1.775-1.519,4.328-1.681,6.291-0.414c9.016,5.82,28.119,15.428,38.419,22.147c3.054,1.992,3.245,6.408,0.33,8.599
	c-50.153,37.707-160.233,68.582-218.686,64.469c-3.022-0.213-5.58,2.21-5.58,5.24v21.341c0,2.9,2.351,5.251,5.251,5.251h250.57
	c2.9,0,5.251-2.351,5.251-5.251V52.591c0-2.9-2.351-5.251-5.251-5.251h-250.57C205.957,47.34,203.607,49.691,203.607,52.591z"/>
<g>
	<path style="fill:#66AF3F;" d="M90.772,165.971c0,0,37.653-55.556,112.835-61.302V84.513
		c-83.271,6.689-155.385,77.216-155.385,77.216s40.845,118.067,155.385,128.879v-21.421
		C119.554,258.61,90.772,165.971,90.772,165.971z"/>
	<path style="fill:#66AF3F;" d="M203.607,226.579v19.622c-63.525-11.328-81.16-77.367-81.16-77.367s30.5-33.789,81.16-39.267v21.529
		c-0.037,0-0.064-0.01-0.097-0.01c-26.587-3.192-47.357,21.646-47.357,21.646S167.793,214.546,203.607,226.579"/>
</g>
<path style="fill:#72BE4F;" d="M203.607,129.567v-24.895c2.42-0.171,4.857-0.302,7.347-0.379
	c68.079-2.138,112.745,58.503,112.745,58.503s-48.244,66.999-99.968,66.999c-7.445,0-14.121-1.195-20.125-3.216v-75.484
	c26.503,3.202,31.836,14.909,47.769,41.473l35.441-29.883c0,0-25.868-33.927-69.479-33.927
	C212.598,128.754,208.061,129.09,203.607,129.567"/>
<g>
	<path style="fill:#66AF3F;" d="M230.698,162.344c-6.49-6.189-14.337-9.708-27.092-11.249v75.484
		c6.004,2.021,12.68,3.216,20.125,3.216c2.331,0,4.654-0.141,6.967-0.4V162.344z"/>
	<path style="fill:#66AF3F;" d="M230.698,129.858v-24.431c-6.333-0.923-12.919-1.349-19.744-1.135
		c-2.49,0.077-4.927,0.208-7.347,0.379v24.895c4.454-0.477,8.992-0.812,13.731-0.809
		C222.002,128.758,226.45,129.165,230.698,129.858z"/>
	<path style="fill:#66AF3F;" d="M208.347,269.701c3.608,0.326,7.311,0.508,11.126,0.508c3.802,0,7.538-0.122,11.226-0.332v-22.525
		c-7.072,0.639-14.154,0.587-21.2-0.273c-3.133-0.383-5.892,2.049-5.892,5.205v12.187
		C203.607,267.175,205.655,269.458,208.347,269.701z"/>
	<path style="fill:#66AF3F;" d="M209.087,84.161c7.243-0.353,14.457-0.169,21.611,0.486V47.34h-21.841
		c-2.9,0-5.251,2.351-5.251,5.251v26.328C203.607,81.909,206.1,84.307,209.087,84.161z"/>
	<path style="fill:#66AF3F;" d="M230.698,291.174c-7.715,0.382-14.942,0.365-21.511-0.097c-3.022-0.213-5.58,2.211-5.58,5.24v21.341
		c0,2.9,2.351,5.251,5.251,5.251h21.841v-31.735H230.698z"/>
</g>
</svg>
