<svg style="fill: #949393" xmlns="http://www.w3.org/2000/svg" viewBox="0 0 100 100" id="1236619351" class="svg u_1236619351" data-icon-name="education_triangle_ruler"> <title id="1041807194">new_icons-2</title> 
 <path d="M86.76,87.28H13.24V12.72ZM14.5,86H83.75L14.5,15.79Z" id="1608554097"></path> 
 <path d="M58.38,74.42H25.85v-33ZM27.11,73.16H55.37L27.11,44.5Z" id="1706103709"></path> 
 <path d="M21.18,33.43H13.87a.5.5,0,1,1,0-1h7.32a.5.5,0,0,1,0,1Z" id="1191539661"></path> 
 <path d="M17.53,23.51H13.71a.38.38,0,0,1,0-.76h3.82a.38.38,0,0,1,0,.76Z" id="1472001716"></path> 
 <path d="M17.53,28.81H13.71a.38.38,0,0,1,0-.76h3.82a.38.38,0,0,1,0,.76Z" id="1134024656"></path> 
 <path d="M17.53,38.4H13.71a.38.38,0,0,1,0-.76h3.82a.38.38,0,1,1,0,.76Z" id="1433536253"></path> 
 <path d="M17.53,43.69H13.71a.38.38,0,0,1,0-.76h3.82a.38.38,0,1,1,0,.76Z" id="1519401669"></path> 
 <path d="M17.53,49.49H13.71a.38.38,0,0,1,0-.76h3.82a.38.38,0,0,1,0,.76Z" id="1631135070"></path> 
 <path d="M17.53,54.79H13.71a.38.38,0,1,1,0-.76h3.82a.38.38,0,0,1,0,.76Z" id="1897715629"></path> 
 <path d="M18,64.12H14.21a.38.38,0,1,1,0-.76H18a.38.38,0,1,1,0,.76Z" id="1390393655"></path> 
 <path d="M18,69.42H14.21a.38.38,0,0,1,0-.76H18a.38.38,0,1,1,0,.76Z" id="1729817379"></path> 
 <path d="M18,75.22H14.21a.38.38,0,0,1,0-.76H18a.38.38,0,0,1,0,.76Z" id="1543479287"></path> 
 <path d="M18,80.52H14.21a.38.38,0,0,1,0-.76H18a.38.38,0,1,1,0,.76Z" id="1725136788"></path> 
 <path d="M20,86.59h0a.38.38,0,0,1-.38-.38V82.39A.38.38,0,0,1,20,82h0a.38.38,0,0,1,.38.38v3.82A.38.38,0,0,1,20,86.59Z" id="1954486345"></path> 
 <path d="M25.33,86.59h0a.38.38,0,0,1-.38-.38V82.39a.38.38,0,0,1,.38-.38h0a.38.38,0,0,1,.38.38v3.82A.38.38,0,0,1,25.33,86.59Z" id="1296186978"></path> 
 <path d="M31.13,86.59h0a.38.38,0,0,1-.38-.38V82.39a.38.38,0,0,1,.38-.38h0a.38.38,0,0,1,.38.38v3.82A.38.38,0,0,1,31.13,86.59Z" id="1332478885"></path> 
 <path d="M36.43,86.59h0a.38.38,0,0,1-.38-.38V82.39a.38.38,0,0,1,.38-.38h0a.38.38,0,0,1,.38.38v3.82A.38.38,0,0,1,36.43,86.59Z" id="1434511104"></path> 
 <path d="M45.76,86.59h0a.38.38,0,0,1-.38-.38V82.39a.38.38,0,0,1,.38-.38h0a.38.38,0,0,1,.38.38v3.82A.38.38,0,0,1,45.76,86.59Z" id="1510453423"></path> 
 <path d="M51.06,86.59h0a.38.38,0,0,1-.38-.38V82.39a.38.38,0,0,1,.38-.38h0a.38.38,0,0,1,.38.38v3.82A.38.38,0,0,1,51.06,86.59Z" id="1213424337"></path> 
 <path d="M56.86,86.59h0a.38.38,0,0,1-.38-.38V82.39a.38.38,0,0,1,.38-.38h0a.38.38,0,0,1,.38.38v3.82A.38.38,0,0,1,56.86,86.59Z" id="1145475128"></path> 
 <path d="M62.15,86.59h0a.38.38,0,0,1-.38-.38V82.39a.38.38,0,0,1,.38-.38h0a.38.38,0,0,1,.38.38v3.82A.38.38,0,0,1,62.15,86.59Z" id="1301622846"></path> 
 <path d="M21.06,59.79H13.74a.5.5,0,0,1,0-1h7.32a.5.5,0,0,1,0,1Z" id="1696424452"></path> 
 <path d="M40.73,87a.5.5,0,0,1-.5-.5V79.21a.5.5,0,0,1,1,0v7.32A.5.5,0,0,1,40.73,87Z" id="1515241367"></path> 
 <path d="M67.47,87a.5.5,0,0,1-.5-.5V79.21a.5.5,0,0,1,1,0v7.32A.5.5,0,0,1,67.47,87Z" id="1036367449"></path> 
</svg>