<svg style="fill: #949393" xmlns="http://www.w3.org/2000/svg" viewBox="0 0 100 100" id="1018591614" class="svg u_1018591614" data-icon-name="education_pen_pencil"> <title id="1965984638">new_icons-2</title> 
 <rect x="24.4" y="69.55" width="5.39" height="1.15" transform="translate(-44.78 92.18) rotate(-85.93)" id="1157359532"></rect> 
 <rect x="70.47" y="18.99" width="1.54" height="20.9" transform="translate(-0.33 58.07) rotate(-44.26)" id="1128914671"></rect> 
 <rect x="18.22" y="46.23" width="58.63" height="1.54" transform="translate(-19.31 47.7) rotate(-45.28)" id="1886439271"></rect> 
 <rect x="23.56" y="51.42" width="57.54" height="1.54" transform="translate(-21.57 51.93) rotate(-44.72)" id="1439617824"></rect> 
 <path d="M83.42,19.89l-2.63-2.63a9.42,9.42,0,0,0-13.3,0L17.21,66.38c-.53.53.6,1,.81.81L68.3,18.07a8.28,8.28,0,0,1,11.67,0l2.63,2.63a8.28,8.28,0,0,1,0,11.67L33.33,80.5c0,.47.28,1.35.68,1L83.42,33.19A9.41,9.41,0,0,0,83.42,19.89Z" id="1962103272"></path> 
 <path d="M33.81,81.74l-.13,0c-.46-.17-.54-1.2-.54-1.21v-.09L82.47,32.24a8.09,8.09,0,0,0,0-11.4L79.84,18.2a8.09,8.09,0,0,0-11.4,0L18.16,67.33c-.24.24-.83,0-1.08-.23a.62.62,0,0,1-.2-.39.58.58,0,0,1,.2-.46L67.35,17.12a9.61,9.61,0,0,1,13.57,0l2.63,2.63a9.61,9.61,0,0,1,0,13.57L34.14,81.59A.46.46,0,0,1,33.81,81.74Zm-.28-1.17a1.35,1.35,0,0,0,.28.79l.06,0L83.29,33a9.22,9.22,0,0,0,0-13l-2.63-2.63a9.22,9.22,0,0,0-13,0L17.35,66.51c-.12.12-.09.19,0,.25a.77.77,0,0,0,.61.28L68.17,17.93a8.47,8.47,0,0,1,11.94,0l2.63,2.63a8.47,8.47,0,0,1,0,11.94Z" id="1729927516"></path> 
 <rect x="22.11" y="62.44" width="1.15" height="9.24" transform="translate(-46.03 84.09) rotate(-85.24)" id="1656443015"></rect> 
 <rect x="32.34" y="71.93" width="1.15" height="8.81" transform="translate(-16.83 9.73) rotate(-13.43)" id="1923368070"></rect> 
 <rect x="26.52" y="71.66" width="5.76" height="1.15" id="1669510135"></rect> 
 <polygon points="12.53 87.27 16.93 66.55 18.45 66.8 14.41 85.23 33.63 80.13 33.99 81.62 12.53 87.27" id="1174638719"></polygon> 
 <rect x="17.69" y="77.87" width="1.15" height="6.79" transform="translate(-53.83 39.57) rotate(-47.29)" id="1613709895"></rect> 
 <path d="M14.78,23.44a3.85,3.85,0,0,1-.28-5.4l3.31-3,.05-.05a3.85,3.85,0,0,1,5.43-.24L48.67,36.91a1.87,1.87,0,0,1,.79-1.35l-25.13-22a5.38,5.38,0,0,0-7.56.33l-3.31,3-.05.05a5.39,5.39,0,0,0,.32,7.56L35.39,49.79A1.71,1.71,0,0,1,36.7,49L14.85,23.5Z" id="1424646591"></path> 
 <path d="M72.7,55.86l-6.81-5.95a1.71,1.71,0,0,1-1.16,1l7,6.07a3.84,3.84,0,0,1,.27,5.41L62.1,71.93l0,0a3.85,3.85,0,0,1-5.39.29l-6.49-7.56a2,2,0,0,1-.7,1.54l6.05,7.05.07.07a5.33,5.33,0,0,0,3.61,1.39h.26A5.33,5.33,0,0,0,63.18,73L73,63.49l0,0A5.38,5.38,0,0,0,72.7,55.86Z" id="1923029245"></path> 
 <path d="M79.88,87.79c-12-.3-13.93-9.14-14.95-13.89a8.65,8.65,0,0,0-.82-2.74l.83-1.29c.81.52,1.09,1.79,1.5,3.71,1,4.64,2.66,12.41,13.46,12.68,1.7,0,5-.22,6.45-.33-.12-1.45-.35-4.59-.34-6.36-.23-10.79-8-12.48-12.62-13.5-1.92-.42-3.19-.7-3.7-1.51l1.3-.82h0a8.65,8.65,0,0,0,2.73.83c4.75,1,13.58,3,13.83,15,0,2.26.39,7,.4,7l.07.77-.77.06C87,87.42,82.18,87.79,79.88,87.79Z" id="1794454256"></path> 
</svg>