<svg width="120" height="120" viewBox="0 0 120 120" fill="none" xmlns="http://www.w3.org/2000/svg">
<path d="M112.7 32.1C112.106 29.727 110.897 27.5529 109.194 25.797C107.49 24.0412 105.354 22.7659 103 22.1C94.4003 20 60.0003 20 60.0003 20C60.0003 20 25.6003 20 17.0003 22.3C14.6466 22.9659 12.5102 24.2412 10.8071 25.997C9.10392 27.7529 7.89428 29.927 7.30034 32.3C5.72641 41.0278 4.95652 49.8815 5.00034 58.75C4.94424 67.6852 5.71418 76.6065 7.30034 85.4C7.95514 87.6992 9.19187 89.7907 10.8911 91.4724C12.5902 93.1541 14.6944 94.3691 17.0003 95C25.6003 97.3 60.0003 97.3 60.0003 97.3C60.0003 97.3 94.4003 97.3 103 95C105.354 94.3341 107.49 93.0588 109.194 91.303C110.897 89.5471 112.106 87.373 112.7 85C114.262 76.3379 115.032 67.5517 115 58.75C115.056 49.8148 114.287 40.8935 112.7 32.1Z" stroke="black" stroke-width="3" stroke-linecap="round" stroke-linejoin="round"/>
<path d="M48.75 75.0999L77.5 58.7499L48.75 42.3999V75.0999Z" stroke="black" stroke-width="3" stroke-linecap="round" stroke-linejoin="round"/>
</svg>
