<svg width="120" height="120" viewBox="0 0 120 120" fill="none" xmlns="http://www.w3.org/2000/svg">
<path d="M115 15.0002C110.212 18.3776 104.911 20.9608 99.3 22.6502C96.2887 19.1878 92.2867 16.7337 87.8352 15.6199C83.3837 14.506 78.6975 14.7862 74.4104 16.4225C70.1233 18.0588 66.4422 20.9722 63.8649 24.7688C61.2876 28.5654 59.9385 33.0619 60 37.6502V42.6502C51.2132 42.8781 42.5064 40.9293 34.655 36.9775C26.8037 33.0256 20.0516 27.1934 15 20.0002C15 20.0002 -5 65.0002 40 85.0002C29.7026 91.9901 17.4358 95.4949 5 95.0002C50 120 105 95.0002 105 37.5002C104.995 36.1075 104.861 34.7182 104.6 33.3502C109.703 28.3177 113.304 21.9638 115 15.0002Z" stroke="black" stroke-width="3" stroke-linecap="round" stroke-linejoin="round"/>
</svg>
