<svg xmlns="http://www.w3.org/2000/svg" width="77.5" height="77.5" viewBox="0 0 77.5 77.5">
  <defs>
    <style>
      .cls-1 {
        fill: #76b900;
        fill-rule: evenodd;
      }
    </style>
  </defs>
  <path id="question-icon.svg" class="cls-1" d="M4426.55,1502.92a4.375,4.375,0,1,1-3.12,7.5A4.375,4.375,0,0,1,4426.55,1502.92Zm1.25-3.75a1.878,1.878,0,0,0,1.88-1.88h0a5.847,5.847,0,0,1,1.4-3.75,24.869,24.869,0,0,1,3.6-2.65,20.893,20.893,0,0,0,4.84-3.91,9.974,9.974,0,0,0,2.19-6.56,10.953,10.953,0,0,0-4.38-9.06,16.909,16.909,0,0,0-10.78-3.44,18.337,18.337,0,0,0-8.59,1.87,21.746,21.746,0,0,0-5.78,5.16,1.69,1.69,0,0,0-.31,1.41,1.988,1.988,0,0,0,.78,1.25l2.03,1.4a1.858,1.858,0,0,0,2.5-.31,12.8,12.8,0,0,1,3.98-3.44,11.667,11.667,0,0,1,5.39-1.09q4.38,0,6.72,2.03a5.19,5.19,0,0,1,2.19,4.22,4.94,4.94,0,0,1-1.56,3.59,17.009,17.009,0,0,1-3.44,2.66,24.379,24.379,0,0,0-4.84,3.75,10.843,10.843,0,0,0-2.19,6.87h0a1.861,1.861,0,0,0,1.87,1.88h2.5Zm-1.25-43.13a32.964,32.964,0,0,0-16.95,4.54,33.781,33.781,0,0,0-12.27,12.26,33.995,33.995,0,0,0,0,33.91,33.781,33.781,0,0,0,12.27,12.26,33.995,33.995,0,0,0,33.91,0,33.83,33.83,0,0,0,12.26-12.26,33.995,33.995,0,0,0,0-33.91,33.593,33.593,0,0,0-12.34-12.26A33.107,33.107,0,0,0,4426.55,1456.04Zm0-5a37.586,37.586,0,0,1,19.38,5.24,39.2,39.2,0,0,1,14.14,14.14,38.5,38.5,0,0,1,0,38.75,39.2,39.2,0,0,1-14.14,14.14,38.5,38.5,0,0,1-38.75,0,39.12,39.12,0,0,1-14.14-14.14,38.44,38.44,0,0,1,0-38.75,39.12,39.12,0,0,1,14.14-14.14A37.524,37.524,0,0,1,4426.55,1451.04Z" transform="translate(-4387.81 -1451.03)"/>
</svg>
