<svg width="325" height="130" viewBox="0 0 325 130" fill="none" xmlns="http://www.w3.org/2000/svg">
<path d="M0 0H325V130H0V0Z" fill="#0038FF"/>
<path d="M33 28.2H36.2V25H55.4V28.2H58.6V53.8H55.4V57H36.2V53.8H33V47.4H39.4V50.6H52.2V44.2H36.2V41H33V28.2ZM39.4 31.4V37.8H52.2V31.4H39.4ZM93.8125 28.2H97.0125V25H116.213V28.2H119.413V53.8H116.213V57H97.0125V53.8H93.8125V28.2ZM100.213 50.6H113.013V31.4H100.213V50.6ZM122.625 25H129.025V37.8H132.225V34.6H135.425V31.4H138.625V28.2H141.825V25H148.225V31.4H145.025V34.6H141.825V37.8H138.625V44.2H141.825V47.4H145.025V50.6H148.225V57H141.825V53.8H138.625V50.6H135.425V47.4H132.225V44.2H129.025V57H122.625V25ZM151.438 25H177.038V31.4H167.438V57H161.038V31.4H151.438V25ZM180.25 28.2H183.45V25H205.85V57H199.45V47.4H196.25V50.6H193.05V53.8H189.85V57H180.25V53.8H183.45V50.6H186.65V47.4H189.85V44.2H183.45V41H180.25V28.2ZM186.65 37.8H199.45V31.4H186.65V37.8ZM209.062 25H231.463V31.4H215.463V37.8H231.463V41H234.663V53.8H231.463V57H209.062V25ZM215.463 50.6H228.263V44.2H215.463V50.6ZM237.875 25H260.275V28.2H263.475V41H260.275V44.2H244.275V57H237.875V25ZM244.275 37.8H257.075V31.4H244.275V37.8ZM266.688 28.2H269.888V25H292.288V57H285.888V47.4H282.688V50.6H279.488V53.8H276.288V57H266.688V53.8H269.888V50.6H273.088V47.4H276.288V44.2H269.888V41H266.688V28.2ZM273.088 37.8H285.888V31.4H273.088V37.8Z" fill="white"/>
<path d="M32 27.2H35.2V24H54.4V27.2H57.6V52.8H54.4V56H35.2V52.8H32V46.4H38.4V49.6H51.2V43.2H35.2V40H32V27.2ZM38.4 30.4V36.8H51.2V30.4H38.4ZM92.8125 27.2H96.0125V24H115.213V27.2H118.413V52.8H115.213V56H96.0125V52.8H92.8125V27.2ZM99.2125 49.6H112.013V30.4H99.2125V49.6ZM121.625 24H128.025V36.8H131.225V33.6H134.425V30.4H137.625V27.2H140.825V24H147.225V30.4H144.025V33.6H140.825V36.8H137.625V43.2H140.825V46.4H144.025V49.6H147.225V56H140.825V52.8H137.625V49.6H134.425V46.4H131.225V43.2H128.025V56H121.625V24ZM150.438 24H176.038V30.4H166.438V56H160.038V30.4H150.438V24ZM179.25 27.2H182.45V24H204.85V56H198.45V46.4H195.25V49.6H192.05V52.8H188.85V56H179.25V52.8H182.45V49.6H185.65V46.4H188.85V43.2H182.45V40H179.25V27.2ZM185.65 36.8H198.45V30.4H185.65V36.8ZM208.062 24H230.463V30.4H214.463V36.8H230.463V40H233.663V52.8H230.463V56H208.062V24ZM214.463 49.6H227.263V43.2H214.463V49.6ZM236.875 24H259.275V27.2H262.475V40H259.275V43.2H243.275V56H236.875V24ZM243.275 36.8H256.075V30.4H243.275V36.8ZM265.688 27.2H268.888V24H291.288V56H284.888V46.4H281.688V49.6H278.488V52.8H275.288V56H265.688V52.8H268.888V49.6H272.088V46.4H275.288V43.2H268.888V40H265.688V27.2ZM272.088 36.8H284.888V30.4H272.088V36.8Z" fill="#0038FF"/>
<path d="M30 25.2H33.2V22H52.4V25.2H55.6V50.8H52.4V54H33.2V50.8H30V44.4H36.4V47.6H49.2V41.2H33.2V38H30V25.2ZM36.4 28.4V34.8H49.2V28.4H36.4ZM90.8125 25.2H94.0125V22H113.213V25.2H116.413V50.8H113.213V54H94.0125V50.8H90.8125V25.2ZM97.2125 47.6H110.013V28.4H97.2125V47.6ZM119.625 22H126.025V34.8H129.225V31.6H132.425V28.4H135.625V25.2H138.825V22H145.225V28.4H142.025V31.6H138.825V34.8H135.625V41.2H138.825V44.4H142.025V47.6H145.225V54H138.825V50.8H135.625V47.6H132.425V44.4H129.225V41.2H126.025V54H119.625V22ZM148.438 22H174.038V28.4H164.438V54H158.038V28.4H148.438V22ZM177.25 25.2H180.45V22H202.85V54H196.45V44.4H193.25V47.6H190.05V50.8H186.85V54H177.25V50.8H180.45V47.6H183.65V44.4H186.85V41.2H180.45V38H177.25V25.2ZM183.65 34.8H196.45V28.4H183.65V34.8ZM206.062 22H228.463V28.4H212.463V34.8H228.463V38H231.663V50.8H228.463V54H206.062V22ZM212.463 47.6H225.263V41.2H212.463V47.6ZM234.875 22H257.275V25.2H260.475V38H257.275V41.2H241.275V54H234.875V22ZM241.275 34.8H254.075V28.4H241.275V34.8ZM263.688 25.2H266.888V22H289.288V54H282.888V44.4H279.688V47.6H276.488V50.8H273.288V54H263.688V50.8H266.888V47.6H270.088V44.4H273.288V41.2H266.888V38H263.688V25.2ZM270.088 34.8H282.888V28.4H270.088V34.8Z" fill="white"/>
<path d="M35.2 76H48V101.6H54.4V108H35.2V101.6H41.6V82.4H35.2V76ZM60.8125 79.2H64.0125V76H83.2125V79.2H86.4125V88.8H83.2125V95.2H86.4125V104.8H83.2125V108H64.0125V104.8H60.8125V95.2H64.0125V88.8H60.8125V79.2ZM67.2125 101.6H80.0125V95.2H67.2125V101.6ZM67.2125 88.8H80.0125V82.4H67.2125V88.8ZM99.225 82.4H105.625V88.8H99.225V82.4ZM99.225 95.2H105.625V101.6H99.225V95.2ZM118.438 79.2H121.638V76H140.838V79.2H144.038V104.8H140.838V108H121.638V104.8H118.438V79.2ZM131.238 95.2V98.4H128.038V101.6H137.638V92H134.438V95.2H131.238ZM124.838 92H128.038V88.8H131.238V85.6H134.438V82.4H124.838V92ZM147.25 79.2H150.45V76H169.65V79.2H172.85V104.8H169.65V108H150.45V104.8H147.25V79.2ZM160.05 95.2V98.4H156.85V101.6H166.45V92H163.25V95.2H160.05ZM153.65 92H156.85V88.8H160.05V85.6H163.25V82.4H153.65V92Z" fill="white"/>
<path d="M34.2 75H47V100.6H53.4V107H34.2V100.6H40.6V81.4H34.2V75ZM59.8125 78.2H63.0125V75H82.2125V78.2H85.4125V87.8H82.2125V94.2H85.4125V103.8H82.2125V107H63.0125V103.8H59.8125V94.2H63.0125V87.8H59.8125V78.2ZM66.2125 100.6H79.0125V94.2H66.2125V100.6ZM66.2125 87.8H79.0125V81.4H66.2125V87.8ZM98.225 81.4H104.625V87.8H98.225V81.4ZM98.225 94.2H104.625V100.6H98.225V94.2ZM117.438 78.2H120.638V75H139.838V78.2H143.038V103.8H139.838V107H120.638V103.8H117.438V78.2ZM130.238 94.2V97.4H127.038V100.6H136.638V91H133.438V94.2H130.238ZM123.838 91H127.038V87.8H130.238V84.6H133.438V81.4H123.838V91ZM146.25 78.2H149.45V75H168.65V78.2H171.85V103.8H168.65V107H149.45V103.8H146.25V78.2ZM159.05 94.2V97.4H155.85V100.6H165.45V91H162.25V94.2H159.05ZM152.65 91H155.85V87.8H159.05V84.6H162.25V81.4H152.65V91Z" fill="#0038FF"/>
<path d="M32.2 73H45V98.6H51.4V105H32.2V98.6H38.6V79.4H32.2V73ZM57.8125 76.2H61.0125V73H80.2125V76.2H83.4125V85.8H80.2125V92.2H83.4125V101.8H80.2125V105H61.0125V101.8H57.8125V92.2H61.0125V85.8H57.8125V76.2ZM64.2125 98.6H77.0125V92.2H64.2125V98.6ZM64.2125 85.8H77.0125V79.4H64.2125V85.8ZM96.225 79.4H102.625V85.8H96.225V79.4ZM96.225 92.2H102.625V98.6H96.225V92.2ZM115.438 76.2H118.638V73H137.838V76.2H141.038V101.8H137.838V105H118.638V101.8H115.438V76.2ZM128.238 92.2V95.4H125.038V98.6H134.638V89H131.438V92.2H128.238ZM121.838 89H125.038V85.8H128.238V82.6H131.438V79.4H121.838V89ZM144.25 76.2H147.45V73H166.65V76.2H169.85V101.8H166.65V105H147.45V101.8H144.25V76.2ZM157.05 92.2V95.4H153.85V98.6H163.45V89H160.25V92.2H157.05ZM150.65 89H153.85V85.8H157.05V82.6H160.25V79.4H150.65V89Z" fill="white"/>
</svg>
