<svg width="56" height="36" viewBox="0 0 56 36" fill="none" xmlns="http://www.w3.org/2000/svg">
<path fill-rule="evenodd" clip-rule="evenodd" d="M34.9416 7.5C34.0146 7.5 33.1256 7.13125 32.4701 6.47487C31.8146 5.8185 31.4464 4.92826 31.4464 4C31.4464 3.07174 31.8146 2.1815 32.4701 1.52513C33.1256 0.86875 34.0146 0.5 34.9416 0.5H52.4173C53.3443 0.5 54.2333 0.86875 54.8888 1.52513C55.5442 2.1815 55.9125 3.07174 55.9125 4V21.5C55.9125 22.4283 55.5442 23.3185 54.8888 23.9749C54.2333 24.6313 53.3443 25 52.4173 25C51.4903 25 50.6013 24.6313 49.9459 23.9749C49.2904 23.3185 48.9222 22.4283 48.9222 21.5V12.449L33.9175 27.4745C33.262 28.1306 32.3732 28.4993 31.4464 28.4993C30.5196 28.4993 29.6308 28.1306 28.9753 27.4745L20.961 19.449L5.95629 34.4745C5.2971 35.1121 4.41421 35.4648 3.4978 35.4569C2.58138 35.4489 1.70475 35.0808 1.05673 34.4319C0.408697 33.7829 0.0411156 32.9051 0.0331521 31.9874C0.0251887 31.0697 0.37748 30.1856 1.01415 29.5255L18.4899 12.0255C19.1453 11.3694 20.0342 11.0007 20.961 11.0007C21.8878 11.0007 22.7766 11.3694 23.432 12.0255L31.4464 20.051L43.98 7.5H34.9416Z" fill="#2D3436"/>
</svg>
