<svg width="67" height="63" viewBox="0 0 67 63" fill="none" xmlns="http://www.w3.org/2000/svg">
<path d="M64.0902 22.2409L44.5294 19.3942L35.7852 1.64231C35.5463 1.15628 35.1534 0.762822 34.6681 0.523661C33.4508 -0.0780964 31.9716 0.423368 31.363 1.64231L22.6188 19.3942L3.05792 22.2409C2.51863 22.3181 2.02557 22.5727 1.64806 22.9584C1.19168 23.4282 0.940196 24.0601 0.948863 24.7154C0.957531 25.3707 1.22564 25.9958 1.69429 26.4533L15.8468 40.2705L12.5032 59.7814C12.4248 60.2352 12.475 60.702 12.648 61.1288C12.821 61.5556 13.11 61.9253 13.4822 62.1959C13.8543 62.4666 14.2948 62.6274 14.7536 62.6602C15.2124 62.693 15.6712 62.5963 16.0779 62.3813L33.5741 53.1698L51.0702 62.3813C51.5478 62.6359 52.1026 62.7207 52.6341 62.6282C53.9747 62.3967 54.876 61.1238 54.6449 59.7814L51.3013 40.2705L65.4538 26.4533C65.8391 26.0752 66.0933 25.5815 66.1703 25.0414C66.3783 23.6913 65.4384 22.4415 64.0902 22.2409Z" fill="#2D3436"/>
</svg>
