<svg width="65" height="49" viewBox="0 0 65 49" fill="none" xmlns="http://www.w3.org/2000/svg">
<path d="M20.477 26.4688H25.0906L22.7838 19.9202L20.477 26.4688ZM44.7533 24.5C43.1018 24.5 41.7574 25.8252 41.7574 27.4531C41.7574 29.081 43.1018 30.4062 44.7533 30.4062C46.4047 30.4062 47.7491 29.081 47.7491 27.4531C47.7491 25.8252 46.4047 24.5 44.7533 24.5ZM58.7339 0.875H6.80595C3.49805 0.875 0.81427 3.52051 0.81427 6.78125V42.2188C0.81427 45.4795 3.49805 48.125 6.80595 48.125H58.7339C62.0418 48.125 64.7256 45.4795 64.7256 42.2188V6.78125C64.7256 3.52051 62.0418 0.875 58.7339 0.875ZM32.0934 36.3125H29.9788C29.1287 36.3125 28.371 35.7809 28.0914 34.9897L27.1714 32.375H18.3974L17.4761 34.9897C17.34 35.3762 17.085 35.7112 16.7468 35.9483C16.4085 36.1853 16.0038 36.3126 15.5888 36.3125H13.4742C12.0999 36.3125 11.1362 34.9774 11.5868 33.6978L18.29 14.671C18.4942 14.0916 18.8765 13.5893 19.3836 13.2338C19.8907 12.8783 20.4976 12.6874 21.1198 12.6875H24.4477C25.0702 12.6874 25.6772 12.8785 26.1843 13.2342C26.6915 13.5899 27.0736 14.0925 27.2775 14.6722L33.9795 33.6978C34.4301 34.9774 33.4665 36.3125 32.0934 36.3125ZM53.7408 34.3438C53.7408 35.4315 52.8471 36.3125 51.7436 36.3125H49.7464C49.1409 36.3125 48.6179 36.0332 48.2509 35.6136C47.1749 36.0639 45.9928 36.3125 44.7533 36.3125C39.7977 36.3125 35.7658 32.3381 35.7658 27.4531C35.7658 22.5682 39.7977 18.5938 44.7533 18.5938C45.8093 18.5938 46.8079 18.8066 47.7491 19.1376V14.6562C47.7491 13.5685 48.6429 12.6875 49.7464 12.6875H51.7436C52.8471 12.6875 53.7408 13.5685 53.7408 14.6562V34.3438Z" fill="#2D3436"/>
</svg>
