<svg width="65" height="48" viewBox="0 0 65 48" fill="none" xmlns="http://www.w3.org/2000/svg">
<path d="M63.3917 7.45198C63.0279 6.00897 62.3146 4.69303 61.3231 3.63586C60.3317 2.5787 59.0969 1.81738 57.7424 1.42811C52.7565 2.89776e-07 32.7699 0 32.7699 0C32.7699 0 12.7834 -2.89776e-07 7.79743 1.42051C6.44232 1.80852 5.20692 2.56942 4.21531 3.62678C3.22369 4.68414 2.51077 6.00075 2.14813 7.44438C0.81427 12.7618 0.81427 23.8524 0.81427 23.8524C0.81427 23.8524 0.81427 34.943 2.14813 40.2528C2.88283 43.185 5.05125 45.4943 7.79743 46.2767C12.7834 47.7048 32.7699 47.7048 32.7699 47.7048C32.7699 47.7048 52.7565 47.7048 57.7424 46.2767C60.4957 45.4943 62.657 43.185 63.3917 40.2528C64.7256 34.943 64.7256 23.8524 64.7256 23.8524C64.7256 23.8524 64.7256 12.7618 63.3917 7.45198ZM26.4216 34.0314V13.6734L42.97 23.7764L26.4216 34.0314Z" fill="#2D3436"/>
</svg>
