<svg width="24" height="24" viewBox="0 0 24 24" fill="none" xmlns="http://www.w3.org/2000/svg">
<path d="M12 24C9.82812 24 7.82031 23.4648 5.97656 22.3945C4.13281 21.3242 2.67578 19.8672 1.60547 18.0234C0.535156 16.1797 0 14.1719 0 12C0 9.82812 0.535156 7.82031 1.60547 5.97656C2.67578 4.13281 4.13281 2.67578 5.97656 1.60547C7.82031 0.535156 9.82812 0 12 0C14.1719 0 16.1797 0.535156 18.0234 1.60547C19.8672 2.67578 21.3242 4.13281 22.3945 5.97656C23.4648 7.82031 24 9.82812 24 12C24 14.1719 23.4648 16.1797 22.3945 18.0234C21.3242 19.8672 19.8672 21.3242 18.0234 22.3945C16.1797 23.4648 14.1719 24 12 24ZM9 22.0547C9.98438 22.3516 10.9844 22.5 12 22.5C13.0156 22.5 14.0156 22.3516 15 22.0547V17.1797C14.0781 17.7266 13.082 18 12.0117 18C10.9414 18 9.9375 17.7266 9 17.1797V22.0547ZM6.82031 9H1.94531C1.64844 9.98438 1.5 10.9844 1.5 12C1.5 13.0156 1.64844 14.0156 1.94531 15H6.82031C6.27344 14.0625 6 13.0625 6 12C6 10.9375 6.27344 9.9375 6.82031 9ZM15 1.94531C14.0156 1.64844 13.0156 1.5 12 1.5C10.9844 1.5 9.98438 1.64844 9 1.94531V6.82031C9.9375 6.27344 10.9375 6 12 6C13.0625 6 14.0625 6.27344 15 6.82031V1.94531ZM12 7.5C10.75 7.5 9.6875 7.9375 8.8125 8.8125C7.9375 9.6875 7.5 10.75 7.5 12C7.5 13.25 7.9375 14.3125 8.8125 15.1875C9.6875 16.0625 10.75 16.5 12 16.5C13.25 16.5 14.3125 16.0625 15.1875 15.1875C16.0625 14.3125 16.5 13.25 16.5 12C16.5 10.75 16.0625 9.6875 15.1875 8.8125C14.3125 7.9375 13.25 7.5 12 7.5ZM17.1797 9C17.7266 9.9375 18 10.9375 18 12C18 13.0625 17.7266 14.0625 17.1797 15H22.0547C22.3516 14.0156 22.5 13.0156 22.5 12C22.5 10.9844 22.3516 9.98438 22.0547 9H17.1797Z" fill="white"/>
</svg>
