<svg width="15" height="24" viewBox="0 0 15 24" fill="none" xmlns="http://www.w3.org/2000/svg">
<path d="M11.3672 13.9219L13.5 22.5L10.5 24L8.48438 14.9297C8.125 14.9766 7.79688 15 7.5 15C7.20312 15 6.875 14.9766 6.51562 14.9297L4.5 24L1.5 22.5L3.63281 13.9219C2.52344 13.25 1.64062 12.3477 0.984375 11.2148C0.328125 10.082 0 8.84375 0 7.5C0 6.14062 0.335938 4.88672 1.00781 3.73828C1.67969 2.58984 2.58984 1.67969 3.73828 1.00781C4.88672 0.335938 6.14062 0 7.5 0C8.85938 0 10.1133 0.335938 11.2617 1.00781C12.4102 1.67969 13.3203 2.58984 13.9922 3.73828C14.6641 4.88672 15 6.14062 15 7.5C15 8.84375 14.6719 10.082 14.0156 11.2148C13.3594 12.3477 12.4766 13.25 11.3672 13.9219Z" fill="white"/>
</svg>
