<svg width="58" height="40" viewBox="0 0 58 40" fill="none" xmlns="http://www.w3.org/2000/svg">
<g clip-path="url(#clip0)">
<path d="M57.6926 34.351C57.6224 34.177 57.5569 34.0327 57.496 33.917C56.4897 31.8339 54.5667 29.2769 51.7282 26.2455L51.6681 26.176L51.6383 26.142L51.6078 26.1071H51.5774C50.2889 24.6955 49.4731 23.7464 49.1315 23.2604C48.5066 22.3348 48.3665 21.3978 48.7081 20.4484C48.9494 19.7311 49.8562 18.2163 51.426 15.9019C52.2516 14.6753 52.9056 13.6922 53.3887 12.9516C56.8719 7.62903 58.3819 4.22783 57.9185 2.7467L57.7387 2.40058C57.6178 2.1922 57.3057 2.00157 56.8029 1.82771C56.2991 1.65423 55.6551 1.62554 54.8697 1.74115L46.1729 1.81021C46.032 1.75282 45.8307 1.75817 45.5689 1.82771C45.307 1.89725 45.1759 1.93215 45.1759 1.93215L45.0245 2.01907L44.9045 2.12351C44.8038 2.19256 44.6931 2.31402 44.5721 2.48762C44.4518 2.66063 44.3514 2.86365 44.2708 3.09501C43.324 5.895 42.2475 8.4983 41.0393 10.9048C40.2943 12.3397 39.6102 13.5833 38.9856 14.6363C38.3615 15.6889 37.838 16.4644 37.4155 16.9615C36.9924 17.4591 36.6108 17.8578 36.2677 18.1589C35.9255 18.4602 35.6642 18.5874 35.4829 18.5409C35.3017 18.4943 35.1309 18.4481 34.9691 18.4019C34.6875 18.1935 34.461 17.9102 34.2902 17.5515C34.1185 17.1929 34.0031 16.7415 33.9428 16.1976C33.8824 15.6535 33.8471 15.1854 33.8369 14.7919C33.8273 14.3988 33.8317 13.8429 33.8523 13.1256C33.8732 12.4079 33.8824 11.9223 33.8824 11.6678C33.8824 10.7883 33.8975 9.8338 33.9274 8.80407C33.9578 7.7743 33.9825 6.95843 34.0031 6.35737C34.0237 5.75567 34.0332 5.11913 34.0332 4.44803C34.0332 3.77693 33.9976 3.25063 33.9274 2.86864C33.8581 2.48714 33.7516 2.11682 33.6113 1.75781C33.4701 1.39916 33.2633 1.12173 32.9921 0.924777C32.7204 0.728067 32.3826 0.571963 31.9806 0.455983C30.9134 0.178426 29.5545 0.0282813 27.9034 0.00493884C24.159 -0.0412597 21.753 0.23666 20.686 0.838337C20.2633 1.09255 19.8807 1.43989 19.5386 1.87926C19.1762 2.38854 19.1256 2.66646 19.3873 2.71217C20.5954 2.92019 21.4506 3.4178 21.954 4.2045L22.1354 4.6214C22.2765 4.92217 22.4174 5.45467 22.5584 6.21817C22.6992 6.98163 22.79 7.82623 22.83 8.7514C22.9305 10.4409 22.9305 11.8872 22.83 13.0903C22.7292 14.2939 22.634 15.2309 22.5431 15.902C22.4523 16.5731 22.3165 17.1169 22.1354 17.5333C21.954 17.9498 21.8333 18.2044 21.7728 18.2968C21.7124 18.3892 21.6621 18.4474 21.6221 18.4702C21.3604 18.5855 21.0883 18.6442 20.8066 18.6442C20.5245 18.6442 20.1825 18.482 19.7799 18.1579C19.3775 17.8338 18.9598 17.3886 18.5268 16.8216C18.0939 16.2544 17.6057 15.4619 17.0619 14.4438C16.5186 13.4257 15.9548 12.2225 15.371 10.8341L14.8879 9.82723C14.5859 9.17947 14.1734 8.2363 13.65 6.99853C13.1262 5.7603 12.6633 4.56253 12.2608 3.4055C12.0999 2.91958 11.8582 2.54963 11.5362 2.29505L11.385 2.19062C11.2845 2.09822 11.1232 2.00011 10.902 1.89555C10.6804 1.79112 10.4492 1.71623 10.2074 1.67015L1.93306 1.73921C1.08753 1.73921 0.513834 1.95938 0.211752 2.39912L0.0908567 2.60713C0.0304619 2.72299 0 2.90803 0 3.16273C0 3.4173 0.0603948 3.72977 0.18129 4.0997C1.38919 7.3628 2.70275 10.5098 4.12197 13.5411C5.5412 16.5725 6.77449 19.0143 7.82107 20.8644C8.86788 22.7159 9.93491 24.4633 11.0221 26.1058C12.1093 27.7489 12.829 28.8018 13.1811 29.2644C13.5336 29.7279 13.8105 30.0743 14.0118 30.3057L14.7669 31.1386C15.2501 31.6941 15.9596 32.3593 16.8957 33.1344C17.8321 33.91 18.8688 34.6733 20.0063 35.426C21.1439 36.1777 22.4674 36.7907 23.9775 37.265C25.4874 37.7397 26.9569 37.9303 28.3864 37.8383H31.8594C32.5635 37.7683 33.0971 37.514 33.4599 37.0747L33.58 36.9007C33.6609 36.7623 33.7366 36.548 33.8062 36.259C33.8769 35.97 33.912 35.6513 33.912 35.3047C33.8914 34.3097 33.9573 33.413 34.1081 32.6149C34.2586 31.8169 34.43 31.2152 34.6219 30.81C34.8136 30.4052 35.03 30.0635 35.271 29.7866C35.5122 29.509 35.6842 29.3409 35.7851 29.283C35.8855 29.2248 35.9655 29.1853 36.0258 29.1616C36.509 28.9765 37.0777 29.1557 37.7325 29.7C38.387 30.2438 39.0009 30.9153 39.5748 31.7133C40.1488 32.512 40.8381 33.4083 41.6431 34.403C42.449 35.3983 43.1535 36.138 43.7569 36.6247L44.3607 37.0413C44.7641 37.319 45.2876 37.5737 45.9319 37.805C46.5752 38.0363 47.1386 38.0943 47.6223 37.9787L55.3529 37.84C56.1176 37.84 56.7124 37.6943 57.1343 37.4057C57.5575 37.1163 57.8086 36.7977 57.8895 36.4513C57.9704 36.1043 57.9748 35.7107 57.9049 35.2703C57.8332 34.8313 57.7628 34.5243 57.6926 34.351Z" fill="white"/>
</g>
<defs>
<clipPath id="clip0">
<rect width="58" height="40" fill="white"/>
</clipPath>
</defs>
</svg>
