<svg width="24" height="13" viewBox="0 0 24 13" fill="none" xmlns="http://www.w3.org/2000/svg">
<path d="M18 12.0778C16.4844 12.0778 14.4844 10.8902 12 8.51498C9.51562 10.8902 7.51562 12.0778 6 12.0778C4.34375 12.0778 2.92969 11.4956 1.75781 10.3313C0.585938 9.167 0 7.76206 0 6.11648C0 4.47091 0.585938 3.06596 1.75781 1.90163C2.92969 0.737312 4.34375 0.155151 6 0.155151C7.53125 0.155151 9.53125 1.34276 12 3.71798C14.4844 1.34276 16.4844 0.155151 18 0.155151C19.6562 0.155151 21.0703 0.737312 22.2422 1.90163C23.4141 3.06596 24 4.47091 24 6.11648C24 7.76206 23.4141 9.167 22.2422 10.3313C21.0703 11.4956 19.6562 12.0778 18 12.0778ZM6 3.13582C5.10938 3.13582 4.38672 3.42302 3.83203 3.99741C3.27734 4.57181 3 5.27817 3 6.11648C3 6.95479 3.27734 7.66115 3.83203 8.23555C4.38672 8.80995 5.10938 9.09715 6 9.09715C6.34375 9.09715 6.70703 8.99624 7.08984 8.79442C7.47266 8.59261 7.81641 8.34422 8.12109 8.04925C8.42578 7.75429 8.70312 7.45933 8.95312 7.16437C9.20312 6.86941 9.39844 6.62102 9.53906 6.4192L9.75 6.11648C9.70312 6.03886 9.63281 5.93407 9.53906 5.80211C9.44531 5.67016 9.25391 5.42953 8.96484 5.08023C8.67578 4.73094 8.39062 4.42821 8.10938 4.17206C7.82812 3.91591 7.49219 3.67917 7.10156 3.46183C6.71094 3.24449 6.34375 3.13582 6 3.13582ZM18 3.13582C17.6562 3.13582 17.293 3.23672 16.9102 3.43854C16.5273 3.64036 16.1836 3.88874 15.8789 4.18371C15.5742 4.47867 15.2969 4.77363 15.0469 5.06859C14.7969 5.36355 14.6016 5.61194 14.4609 5.81376L14.25 6.11648C14.2969 6.1941 14.3672 6.30277 14.4609 6.44249C14.5547 6.58221 14.7461 6.82284 15.0352 7.16437C15.3242 7.5059 15.6094 7.80475 15.8906 8.0609C16.1719 8.31705 16.5078 8.55379 16.8984 8.77113C17.2891 8.98847 17.6562 9.09715 18 9.09715C18.8906 9.09715 19.6133 8.80995 20.168 8.23555C20.7227 7.66115 21 6.95479 21 6.11648C21 5.27817 20.7227 4.57181 20.168 3.99741C19.6133 3.42302 18.8906 3.13582 18 3.13582Z" fill="black"/>
</svg>
