<svg style="fill: #949393" xmlns="http://www.w3.org/2000/svg" viewBox="0 0 100 100" id="1286134016" class="svg u_1286134016" data-icon-name="business_skyline"> <path d="M17.83,85.66H9.94V46.43h7.88Zm-5.87-2h3.86V48.44H12Z" id="1756766676"></path> 
 <path d="M90.06,85.66H70.31V60.71H90.06Zm-17.73-2H88V62.73H72.32Z" id="1492735247"></path> 
 <path d="M84.22,62.73H76.15v-9h8.07Zm-6.06-2h4v-5h-4Z" id="1402944891"></path> 
 <path d="M57.36,85.66H44.46V61H57.36Zm-10.88-2h8.87V63H46.48Z" id="1777091614"></path> 
 <path d="M40.85,29.21H21.45v-9h19.4Zm-17.39-2H38.83v-5H23.46Z" id="1034268397"></path> 
 <path d="M71.32,85.66a1,1,0,0,1-1-1v-32h-13v32a1,1,0,1,1-2,0v-34h17v34A1,1,0,0,1,71.32,85.66Z" id="1071971774"></path> 
 <path d="M69.48,52.63H58.19V36H69.48Zm-9.27-2h7.26V38H60.2Z" id="1784184550"></path> 
 <path d="M63.83,38a1,1,0,0,1-1-1V24.87a1,1,0,0,1,2,0V37A1,1,0,0,1,63.83,38Z" id="1606040386"></path> 
 <path d="M34.07,22.21a1,1,0,0,1-1-1V16.36H29.23v4.85a1,1,0,1,1-2,0V14.34h7.87v6.86A1,1,0,0,1,34.07,22.21Z" id="1644093141"></path> 
 <path d="M23.92,38.28a1,1,0,0,1-1-1V34.35a1,1,0,0,1,2,0v2.93A1,1,0,0,1,23.92,38.28Z" id="1662826786"></path> 
 <path d="M31.15,38.28a1,1,0,0,1-1-1V34.35a1,1,0,0,1,2,0v2.93A1,1,0,0,1,31.15,38.28Z" id="1229024406"></path> 
 <path d="M38.38,38.28a1,1,0,0,1-1-1V34.35a1,1,0,0,1,2,0v2.93A1,1,0,0,1,38.38,38.28Z" id="1806069370"></path> 
 <path d="M23.92,46.53a1,1,0,0,1-1-1V42.59a1,1,0,0,1,2,0v2.93A1,1,0,0,1,23.92,46.53Z" id="1042671586"></path> 
 <path d="M31.15,46.53a1,1,0,0,1-1-1V42.59a1,1,0,0,1,2,0v2.93A1,1,0,0,1,31.15,46.53Z" id="1371893685"></path> 
 <path d="M38.38,46.53a1,1,0,0,1-1-1V42.59a1,1,0,0,1,2,0v2.93A1,1,0,0,1,38.38,46.53Z" id="1993372382"></path> 
 <path d="M23.92,54.77a1,1,0,0,1-1-1V50.84a1,1,0,0,1,2,0v2.93A1,1,0,0,1,23.92,54.77Z" id="1064466501"></path> 
 <path d="M31.15,54.77a1,1,0,0,1-1-1V50.84a1,1,0,0,1,2,0v2.93A1,1,0,0,1,31.15,54.77Z" id="1212200729"></path> 
 <path d="M38.38,54.77a1,1,0,0,1-1-1V50.84a1,1,0,0,1,2,0v2.93A1,1,0,0,1,38.38,54.77Z" id="1815385357"></path> 
 <path d="M23.92,63a1,1,0,0,1-1-1V59.08a1,1,0,0,1,2,0V62A1,1,0,0,1,23.92,63Z" id="1540638115"></path> 
 <path d="M31.15,63a1,1,0,0,1-1-1V59.08a1,1,0,0,1,2,0V62A1,1,0,0,1,31.15,63Z" id="1341344563"></path> 
 <path d="M38.38,63a1,1,0,0,1-1-1V59.08a1,1,0,0,1,2,0V62A1,1,0,0,1,38.38,63Z" id="1089930084"></path> 
 <path d="M23.92,71.26a1,1,0,0,1-1-1V67.33a1,1,0,1,1,2,0v2.93A1,1,0,0,1,23.92,71.26Z" id="1031564683"></path> 
 <path d="M31.15,71.26a1,1,0,0,1-1-1V67.33a1,1,0,1,1,2,0v2.93A1,1,0,0,1,31.15,71.26Z" id="1615310659"></path> 
 <path d="M38.38,71.26a1,1,0,0,1-1-1V67.33a1,1,0,1,1,2,0v2.93A1,1,0,0,1,38.38,71.26Z" id="1440551985"></path> 
 <path d="M23.92,79.51a1,1,0,0,1-1-1V75.57a1,1,0,1,1,2,0V78.5A1,1,0,0,1,23.92,79.51Z" id="1321920786"></path> 
 <path d="M31.15,79.51a1,1,0,0,1-1-1V75.57a1,1,0,1,1,2,0V78.5A1,1,0,0,1,31.15,79.51Z" id="1881198770"></path> 
 <path d="M38.38,79.51a1,1,0,0,1-1-1V75.57a1,1,0,1,1,2,0V78.5A1,1,0,0,1,38.38,79.51Z" id="1004276725"></path> 
 <path d="M45.47,85.66a1,1,0,0,1-1-1V29.21H17.83V84.65a1,1,0,1,1-2,0V27.2H46.48V84.65A1,1,0,0,1,45.47,85.66Z" id="1582249951"></path> 
 <path d="M89,85.66H11a1,1,0,1,1,0-2H89a1,1,0,1,1,0,2Z" id="1202126046"></path> 
 <path d="M50.91,63a1,1,0,0,1-1-1V54.13a1,1,0,1,1,2,0V62A1,1,0,0,1,50.91,63Z" id="1347829716"></path> 
</svg>