<svg id="ede73d7d-abb5-4b74-be25-a78c359aac43" data-name="Layer 1" xmlns="http://www.w3.org/2000/svg" viewBox="0 0 187 58.17"><defs><style>.a7a31b47-c0c5-42fd-80ca-9c74cfc44b77{fill:#b5b5b5;}.ad6be8aa-1967-44ad-adf0-fabdc73f925e{fill:#565656;}</style></defs><title>кнопи для блока с работами</title><path id="be624233-fced-44e3-934f-2d4eb38275eb" data-name="Path 190" class="a7a31b47-c0c5-42fd-80ca-9c74cfc44b77" d="M26.88,0H160.12C175,0,187,13,187,29.08s-12,29.09-26.88,29.09H26.88C12,58.17,0,45.15,0,29.08S12,0,26.88,0Z"/><path class="ad6be8aa-1967-44ad-adf0-fabdc73f925e" d="M70.09,37.67H65.38V29.16H56.73v8.51H52V16.79h4.7v8.33h8.65V16.79h4.71Z"/><path class="ad6be8aa-1967-44ad-adf0-fabdc73f925e" d="M86.82,37.67H82.47V35.53h-.06A4.85,4.85,0,0,1,78,38a4.65,4.65,0,0,1-3.42-1.23,4.4,4.4,0,0,1-1.24-3.28c0-2.9,1.71-4.56,5.14-5l4-.54c0-1.63-.89-2.44-2.65-2.44a9,9,0,0,0-5.07,1.58V23.65a11.78,11.78,0,0,1,2.63-.88,13.87,13.87,0,0,1,3-.37q6.38,0,6.38,6.36ZM82.5,31.61v-1L79.79,31c-1.5.2-2.25.87-2.25,2a1.71,1.71,0,0,0,.55,1.29,2.14,2.14,0,0,0,1.48.5,2.72,2.72,0,0,0,2.11-.9A3.24,3.24,0,0,0,82.5,31.61Z"/><path class="ad6be8aa-1967-44ad-adf0-fabdc73f925e" d="M89.69,37.27V33.94a10.16,10.16,0,0,0,4.29,1c2.07,0,3.1-.57,3.1-1.7S96,31.46,93.7,31.46H91.62V28.63h2.11c1.93,0,2.9-.57,2.9-1.69s-.86-1.5-2.59-1.5a9.5,9.5,0,0,0-3.9.87V23.15a17.31,17.31,0,0,1,4.73-.75q6.51,0,6.51,4,0,2.79-3.47,3.45V30a4.77,4.77,0,0,1,2.87,1.11,3.1,3.1,0,0,1,1,2.4q0,4.5-7.29,4.5A15.16,15.16,0,0,1,89.69,37.27Z"/><path class="ad6be8aa-1967-44ad-adf0-fabdc73f925e" d="M117.18,37.67h-4.35V35.53h-.06a4.85,4.85,0,0,1-4.44,2.5,4.65,4.65,0,0,1-3.41-1.23,4.4,4.4,0,0,1-1.24-3.28c0-2.9,1.71-4.56,5.13-5l4-.54c0-1.63-.88-2.44-2.65-2.44a9,9,0,0,0-5.06,1.58V23.65a11.67,11.67,0,0,1,2.62-.88,14,14,0,0,1,3-.37q6.38,0,6.37,6.36Zm-4.32-6.06v-1l-2.71.34c-1.49.2-2.24.87-2.24,2a1.67,1.67,0,0,0,.55,1.29,2.09,2.09,0,0,0,1.47.5,2.74,2.74,0,0,0,2.12-.9A3.23,3.23,0,0,0,112.86,31.61Z"/><path class="ad6be8aa-1967-44ad-adf0-fabdc73f925e" d="M136.63,43.1h-3.75V37.67h-10V43.1h-3.7V34.42h1.32a22.33,22.33,0,0,0,3.34-11.66h10.46V34.42h2.36Zm-7-8.68V26h-2.28a19.64,19.64,0,0,1-2.45,8.44Z"/></svg>