<svg id="e78c3e30-84fc-4dc4-9826-9420b9476879" data-name="Layer 1" xmlns="http://www.w3.org/2000/svg" viewBox="0 0 77.54 77.47"><defs><style>.bc33350d-6fa5-41ba-9fc8-c9eb4f056365{fill:#fff;}.fe8dbc5a-5bc9-42db-ad59-356cc0ad9e66{fill:#ffee2f;}</style></defs><title>кнопки</title><g id="e6a05f2c-c410-4543-b204-8a98ccdae852" data-name="Светлая тема кнопка"><circle id="bd6da036-c6d2-4a0e-96c5-bf2d50cac137" data-name="Ellipse 10" class="bc33350d-6fa5-41ba-9fc8-c9eb4f056365" cx="38.81" cy="38.73" r="38.73"/><circle id="f1087b89-6fad-41eb-b72b-543eb3b0b9a2" data-name="Ellipse 11" class="fe8dbc5a-5bc9-42db-ad59-356cc0ad9e66" cx="38.81" cy="38.73" r="12.91"/><g id="e90416cf-bef9-4f7e-a45b-734491cc7269" data-name="Group 149"><g id="f6209d6d-c0a0-4eb2-ad47-b53674f282d4" data-name="Group 141"><path id="eb0c5943-5275-4353-b48f-82eebf7d9681" data-name="Path 193" class="fe8dbc5a-5bc9-42db-ad59-356cc0ad9e66" d="M64.63,40.17H54.3a1.45,1.45,0,0,1-1.39-1.48A1.43,1.43,0,0,1,54.3,37.3H64.63a1.44,1.44,0,0,1,0,2.87Z"/></g><g id="b20a53bc-ee9e-4af8-bc93-c746afb07a48" data-name="Group 142"><path id="a9879a17-a1af-411f-9af7-05bb129e93ad" data-name="Path 194" class="fe8dbc5a-5bc9-42db-ad59-356cc0ad9e66" d="M23.32,40.17H13a1.44,1.44,0,0,1,0-2.87H23.32a1.44,1.44,0,0,1,0,2.87Z"/></g><g id="fc642571-2317-4eb5-95ff-2541963fce26" data-name="Group 143"><path id="ae9e869c-6811-47db-a956-69836020d6c7" data-name="Path 195" class="fe8dbc5a-5bc9-42db-ad59-356cc0ad9e66" d="M49.77,29.21a1.44,1.44,0,0,1-1-2.45l7.3-7.3a1.44,1.44,0,0,1,2,2l-7.3,7.3A1.42,1.42,0,0,1,49.77,29.21Z"/></g><g id="bcf80dfb-41e6-4269-ba64-8c84ee80f7ba" data-name="Group 144"><path id="bd6c48b0-3f36-4347-8be2-3492f4ac5720" data-name="Path 196" class="fe8dbc5a-5bc9-42db-ad59-356cc0ad9e66" d="M20.55,58.43A1.44,1.44,0,0,1,19.12,57a1.42,1.42,0,0,1,.42-1l7.3-7.3a1.44,1.44,0,1,1,2.07,2,.08.08,0,0,0,0,0L21.57,58A1.45,1.45,0,0,1,20.55,58.43Z"/></g><g id="b1b8c879-af97-497e-bce9-2c3b133d69f1" data-name="Group 145"><path id="bbf2e9f6-6865-4fb9-bfe6-fb1384f48155" data-name="Path 197" class="fe8dbc5a-5bc9-42db-ad59-356cc0ad9e66" d="M38.81,24.68a1.44,1.44,0,0,1-1.43-1.44h0V12.91a1.42,1.42,0,0,1,1.39-1.47,1.45,1.45,0,0,1,1.48,1.4v10.4A1.45,1.45,0,0,1,38.81,24.68Z"/></g><g id="a369a6d5-2071-4b4d-8374-c76a6615097d" data-name="Group 146"><path id="a20edc49-e43b-4166-bd5f-30b9baa073dd" data-name="Path 198" class="fe8dbc5a-5bc9-42db-ad59-356cc0ad9e66" d="M38.81,66a1.43,1.43,0,0,1-1.43-1.43h0V54.23a1.43,1.43,0,0,1,1.39-1.48,1.45,1.45,0,0,1,1.48,1.4V64.56A1.44,1.44,0,0,1,38.81,66Z"/></g><g id="a93c4797-0c5f-4d1d-9302-d8ee46f3c4f6" data-name="Group 147"><path id="b2794989-5483-489c-8f33-1f6834f10f47" data-name="Path 199" class="fe8dbc5a-5bc9-42db-ad59-356cc0ad9e66" d="M27.86,29.21a1.45,1.45,0,0,1-1-.42l-7.3-7.3a1.44,1.44,0,0,1,2-2l7.3,7.3a1.44,1.44,0,0,1-1,2.45Z"/></g><g id="b357b81d-d7e7-4895-a4da-fee97138123d" data-name="Group 148"><path id="b48f733d-bb4f-42db-8418-9e3283b8c93c" data-name="Path 200" class="fe8dbc5a-5bc9-42db-ad59-356cc0ad9e66" d="M57.07,58.43a1.41,1.41,0,0,1-1-.42l-7.3-7.3a1.43,1.43,0,0,1,2-2.09l.06.06,7.3,7.3a1.44,1.44,0,0,1,0,2A1.47,1.47,0,0,1,57.07,58.43Z"/></g></g></g></svg>