<svg width="146" height="146" viewBox="0 0 146 146" fill="none" xmlns="http://www.w3.org/2000/svg">
<path d="M49.13 0H96.13C96.52 0.07 96.9 0.16 97.29 0.2C102.22 0.62 107.23 0.61 112.07 1.53C128.69 4.71 139.24 14.53 143.35 31.09C145.09 38.09 145.12 45.24 145.18 52.36C145.3 66.59 145.23 80.82 145.12 95.06C145.222 100.705 144.787 106.347 143.82 111.91C140.5 128.55 130.76 139.17 114.19 143.31C107.25 145.04 100.12 145.09 93.05 145.14C78.05 145.24 63.05 145.14 48.05 145.01C42.2815 145.107 36.5216 144.523 30.89 143.27C18.12 140.12 8.94 132.74 3.9 120.5C1.41 114.5 0.6 108.07 0.35 101.6C0.28 99.76 0.12 97.93 0 96.09V48.89C0.0932117 48.519 0.156746 48.1411 0.19 47.76C0.38 42.12 0.58 36.48 1.93 31C5.11 18 12.66 8.72 25.18 3.72C31.09 1.37 37.32 0.6 43.63 0.36C45.46 0.28 47.3 0.12 49.13 0ZM132.33 70.8C132.07 61.8 131.87 50.8 131.33 39.85C131.191 34.4965 129.529 29.2935 126.54 24.85C121.94 18.18 115.29 14.85 107.46 14.12C100.9 13.47 94.28 13.24 87.68 13.12C76.16 13 64.58 13.09 53 13.23C47.89 13.29 42.77 13.6 37.68 14.09C33.0383 14.4714 28.5772 16.0607 24.74 18.7C18.14 23.32 14.87 29.93 14.11 37.7C13.46 44.3 13.22 50.96 13.11 57.6C12.98 69.13 13.04 80.67 13.19 92.2C13.25 97.31 13.55 102.43 14.04 107.52C14.4209 112.182 16.0136 116.663 18.66 120.52C23.27 127.12 29.89 130.39 37.66 131.16C44.31 131.81 51.01 132.05 57.66 132.11C70 132.21 82.34 132.11 94.66 131.97C99.8642 132.061 105.065 131.649 110.19 130.74C117.9 129.16 124 125.26 127.82 118.25C130.48 113.37 131.39 107.99 131.56 102.51C131.86 92.6 132 82.69 132.25 70.84L132.33 70.8Z" fill="#C2C2C2"/>
<path d="M72.6301 35.2998C80.0121 35.3018 87.2278 37.493 93.3643 41.5963C99.5009 45.6996 104.283 51.5307 107.105 58.3519C109.927 65.1732 110.663 72.6782 109.22 79.9177C107.776 87.1573 104.218 93.8061 98.9951 99.0232C93.7724 104.24 87.1198 107.791 79.8787 109.227C72.6377 110.663 65.1334 109.919 58.3152 107.089C51.497 104.26 45.6711 99.4718 41.5743 93.3308C37.4776 87.1898 35.2941 79.9719 35.3001 72.5898V72.5898C35.2961 67.6925 36.2576 62.8425 38.1296 58.3172C40.0016 53.7918 42.7473 49.6799 46.2097 46.2165C49.6721 42.7532 53.7833 40.0064 58.3082 38.1332C62.8331 36.26 67.6828 35.2972 72.5801 35.2998H72.6301ZM96.7701 72.6298C96.7542 66.246 94.205 60.1295 89.6825 55.6238C85.16 51.1182 79.034 48.5919 72.6501 48.5998C66.2663 48.6078 60.1466 51.1493 55.6353 55.6662C51.1241 60.1831 48.5901 66.3059 48.5901 72.6898C48.5901 79.0737 51.1241 85.1965 55.6353 89.7134C60.1466 94.2303 66.2663 96.7718 72.6501 96.7798C79.034 96.7877 85.16 94.2614 89.6825 89.7558C94.205 85.2502 96.7542 79.1337 96.7701 72.7498V72.6298Z" fill="#C2C2C2"/>
<path d="M111.36 25.1299C113.089 25.1319 114.779 25.6467 116.215 26.6091C117.651 27.5716 118.77 28.9384 119.429 30.5368C120.089 32.1352 120.259 33.8932 119.919 35.5885C119.579 37.2838 118.744 38.8401 117.519 40.0606C116.295 41.2811 114.735 42.111 113.039 42.4451C111.343 42.7793 109.585 42.6028 107.989 41.9379C106.393 41.273 105.03 40.1497 104.072 38.71C103.115 37.2703 102.606 35.5789 102.61 33.8499C102.611 32.7026 102.839 31.5668 103.279 30.5075C103.72 29.4482 104.365 28.4861 105.177 27.6763C105.99 26.8664 106.954 26.2247 108.015 25.7877C109.076 25.3508 110.213 25.1273 111.36 25.1299Z" fill="#C2C2C2"/>
</svg>
