<svg id="fbba221f-016f-4413-be8a-1eff8fee181f" data-name="Layer 1" xmlns="http://www.w3.org/2000/svg" viewBox="0 0 224.88 166.08"><defs><style>.ada33ff7-f783-47dd-98df-c409a0e4f879{fill:#fff;}</style></defs><title>сердце</title><g id="b575529c-32e0-4df1-ae74-45299e822919" data-name="сердце"><path id="bbfe9d65-4c16-4f49-8a76-4cae961856f6" data-name="Path 189" class="ada33ff7-f783-47dd-98df-c409a0e4f879" d="M150.64,166.08a10.61,10.61,0,0,1-6.16-19.26c46.64-33.15,57.86-63,59.05-82.2.05-.7.08-1.29.1-1.89,0-.77,0-1.17,0-1.25a40.31,40.31,0,1,0-80.61,0,10.61,10.61,0,0,1-21.22,0,40.31,40.31,0,0,0-80.61,0s0,.44,0,1.12.06,1.27.1,1.86A10.61,10.61,0,0,1,.18,66.07h0C.11,65.16.07,64.26,0,63.36c0-1.14,0-1.8,0-1.8A61.51,61.51,0,0,1,112.44,27a61.51,61.51,0,0,1,112.44,34.5s0,.7,0,1.92c0,.82-.07,1.71-.13,2.6-1.48,23.71-14.47,60.06-67.93,98.07A10.6,10.6,0,0,1,150.64,166.08Z"/></g></svg>