<svg width="145" height="145" viewBox="0 0 145 145" fill="none" xmlns="http://www.w3.org/2000/svg">
<path d="M72.6699 0.199922C81.6699 0.199922 90.5799 0.199922 99.5299 0.199922C104.149 0.217935 108.761 0.531912 113.34 1.13992C117.712 1.63959 122.003 2.69131 126.11 4.26992C131.548 6.31153 136.106 10.1832 139 15.2199C140.184 17.3706 141.129 19.6441 141.82 21.9999C142.756 25.1651 143.425 28.4031 143.82 31.6799C144.524 37.3186 144.858 42.9975 144.82 48.6799C144.82 64.5333 144.82 80.3799 144.82 96.2199C144.82 99.7499 144.66 103.22 144.45 106.79C144.213 111.513 143.516 116.202 142.37 120.79C141.72 123.4 140.788 125.932 139.59 128.34C137.004 133.553 132.657 137.683 127.32 140C124.116 141.39 120.76 142.397 117.32 143C113.534 143.719 109.7 144.16 105.85 144.32C102.09 144.48 98.3299 144.63 94.5699 144.64C79.9032 144.64 65.2599 144.64 50.6399 144.64C46.6399 144.64 42.5799 144.56 38.5599 144.28C33.7723 144.028 29.0186 143.332 24.3599 142.2C21.6625 141.528 19.0469 140.562 16.5599 139.32C11.3715 136.709 7.27586 132.344 4.99991 127C3.50747 123.541 2.45265 119.91 1.85991 116.19C1.08236 111.595 0.637872 106.949 0.529907 102.29C0.449907 99.2899 0.399902 96.2899 0.399902 93.2899C0.399902 78.0566 0.399902 62.8233 0.399902 47.5899C0.399902 43.5899 0.586582 39.5699 0.959915 35.5299C1.31676 30.9456 2.15128 26.411 3.44991 21.9999C4.23789 19.3786 5.3498 16.8659 6.7599 14.5199C9.41091 10.1929 13.3377 6.79363 17.9999 4.78992C21.4207 3.31013 25.0112 2.25882 28.6899 1.65992C33.1984 0.887366 37.7571 0.442866 42.3299 0.329922C45.1099 0.239922 47.8899 0.179922 50.6699 0.169922C57.9999 0.169922 65.3399 0.169922 72.6699 0.169922V0.199922ZM80.9199 60.4799V49.9999C80.959 49.1685 80.8403 48.3372 80.5699 47.5499C80.4464 47.1841 80.2258 46.8587 79.9316 46.6086C79.6375 46.3585 79.2808 46.193 78.8999 46.1299C78.515 46.05 78.123 46.0098 77.7299 46.0099H61.1799C60.8568 46.0073 60.5364 46.0683 60.237 46.1895C59.9375 46.3107 59.6648 46.4897 59.4345 46.7163C59.2042 46.9429 59.0208 47.2126 58.8948 47.51C58.7687 47.8075 58.7025 48.1269 58.6999 48.4499C58.6919 49.0124 58.8792 49.5602 59.2299 49.9999C59.4899 50.3599 59.7399 50.7099 60.0299 50.9999C61.9322 53.2466 62.9366 56.1173 62.8499 59.0599V73.9199C62.8849 74.5528 62.8849 75.1871 62.8499 75.8199C62.7997 76.341 62.689 76.8545 62.5199 77.3499C62.4385 77.6024 62.2819 77.824 62.071 77.9848C61.86 78.1457 61.6049 78.2382 61.3399 78.2499C60.7692 78.311 60.1947 78.1771 59.7099 77.8699C58.8538 77.3413 58.0791 76.6912 57.4099 75.9399C55.8682 74.2592 54.4825 72.4417 53.2699 70.5099C49.3748 64.3887 46.1908 57.8431 43.7799 50.9999C43.4699 50.1399 43.1499 49.2799 42.7799 48.4399C42.503 47.7417 42.0237 47.142 41.4037 46.718C40.7837 46.2939 40.0511 46.0648 39.2999 46.0599H38.7099C35.2499 46.0599 31.7899 46.0599 28.3399 46.0599C27.8569 46.0576 27.3747 46.1012 26.8999 46.1899C26.4596 46.2233 26.0379 46.381 25.6838 46.6448C25.3297 46.9086 25.0578 47.2676 24.8999 47.6799C24.7123 48.212 24.6374 48.7773 24.6799 49.3399C24.7908 50.3519 24.9746 51.3545 25.2299 52.3399C26.3021 56.3531 27.7484 60.2569 29.5499 63.9999C32.9749 71.2909 37.0974 78.2332 41.8599 84.7299C44.6981 88.7299 48.1155 92.2855 51.9999 95.2799C57.4069 99.6197 63.9386 102.329 70.8299 103.09C73.0742 103.347 75.3437 103.283 77.5699 102.9C78.2323 102.768 78.8745 102.549 79.4799 102.25C79.8627 102.065 80.1906 101.783 80.4309 101.432C80.6712 101.081 80.8156 100.674 80.8499 100.25C80.9099 99.7299 80.9399 99.2499 80.9499 98.6899C80.9499 95.5799 80.9499 92.4699 80.9499 89.3599C80.9511 88.8368 80.998 88.3149 81.0899 87.7999C81.1233 87.3233 81.3418 86.8787 81.6987 86.561C82.0556 86.2433 82.5226 86.0779 82.9999 86.0999C84.2941 86.0017 85.5876 86.2981 86.7099 86.9499C88.0167 87.6665 89.2493 88.5106 90.3899 89.4699C93.273 91.8915 95.9675 94.5291 98.4499 97.3599C99.6999 98.7299 100.97 100.1 102.28 101.36C102.88 101.973 103.602 102.451 104.4 102.765C105.198 103.079 106.053 103.22 106.91 103.18C109.55 103.18 112.21 103.18 114.85 103.18C115.85 103.18 116.85 103.18 117.8 103.18C118.416 103.163 119.02 102.998 119.56 102.7C119.965 102.501 120.307 102.194 120.549 101.813C120.791 101.432 120.923 100.991 120.93 100.54C120.992 99.6832 120.819 98.8257 120.43 98.0599C119.86 96.9032 119.222 95.7812 118.52 94.6999C115.493 90.4574 112.107 86.4828 108.4 82.8199C107.4 81.8199 106.3 80.7599 105.31 79.6899C104.8 79.1219 104.341 78.5095 103.94 77.8599C103.703 77.4986 103.569 77.0793 103.553 76.6475C103.538 76.2156 103.64 75.7877 103.85 75.4099C103.979 75.134 104.126 74.8667 104.29 74.6099C104.84 73.7699 105.41 72.9399 105.98 72.1099C109.36 67.1799 112.65 62.1999 115.58 56.9899C116.612 55.2088 117.511 53.3537 118.27 51.4399C118.661 50.5125 118.891 49.5249 118.95 48.5199C118.999 48.0224 118.864 47.5242 118.571 47.1191C118.278 46.7139 117.848 46.4297 117.36 46.3199C116.772 46.1483 116.162 46.0607 115.55 46.0599C112.05 46.0599 108.55 46.0599 105.05 46.0599C104.524 46.0661 104 46.1332 103.49 46.2599C102.785 46.4377 102.136 46.7888 101.602 47.2813C101.067 47.7738 100.665 48.3921 100.43 49.0799C99.0855 52.2138 97.5836 55.2777 95.9299 58.2599C93.9681 61.88 91.7104 65.3318 89.1799 68.5799C88.0057 70.134 86.638 71.532 85.1099 72.7399C84.5917 73.1395 84.0149 73.4566 83.3999 73.6799C83.2176 73.7678 83.0196 73.8186 82.8175 73.8294C82.6154 73.8402 82.4132 73.8108 82.2225 73.7429C82.0318 73.675 81.8565 73.57 81.7067 73.4339C81.557 73.2977 81.4357 73.1332 81.3499 72.9499C81.3062 72.8571 81.2727 72.7599 81.2499 72.6599C81.0302 72.0861 80.9282 71.474 80.9499 70.8599C80.9499 67.3999 80.9499 63.9399 80.9499 60.4799H80.9199Z" fill="#C2C2C2"/>
</svg>
