<svg width="61" height="53" viewBox="0 0 61 53" fill="none" xmlns="http://www.w3.org/2000/svg">
<path d="M22.5625 0C19.4522 0 16.8725 2.12207 16.1339 4.98945C16.0507 4.98945 15.9883 4.96875 15.9051 4.96875C12.2331 4.96875 9.24763 7.93965 9.24763 11.5938C9.24763 12.0906 9.31004 12.5771 9.42446 13.043C6.38701 14.2852 4.25456 17.2457 4.25456 20.7031C4.25456 22.0074 4.58743 23.2186 5.11794 24.3158C2.62141 25.7443 0.925842 28.3943 0.925842 31.4688C0.925842 34.9158 3.0479 37.8764 6.06454 39.1186C5.97092 39.5947 5.91891 40.0812 5.91891 40.5781C5.91891 44.698 9.26843 48.0312 13.4085 48.0312C13.835 48.0312 14.2511 47.9795 14.6568 47.907C15.6554 50.8572 18.4224 53 21.7303 53C25.8704 53 29.2199 49.6668 29.2199 45.5469V6.625C29.2199 2.9709 26.2345 0 22.5625 0ZM60.8427 31.4688C60.8427 28.3943 59.1471 25.7443 56.6506 24.3158C57.1915 23.2186 57.514 22.0074 57.514 20.7031C57.514 17.2457 55.3815 14.2852 52.3441 13.043C52.4481 12.5771 52.5209 12.0906 52.5209 11.5938C52.5209 7.93965 49.5355 4.96875 45.8635 4.96875C45.7803 4.96875 45.7074 4.98945 45.6346 4.98945C44.8961 2.12207 42.3163 0 39.206 0C35.5341 0 32.5486 2.96055 32.5486 6.625V45.5469C32.5486 49.6668 35.8981 53 40.0382 53C43.3461 53 46.1131 50.8572 47.1117 47.907C47.5174 47.9795 47.9335 48.0312 48.36 48.0312C52.5001 48.0312 55.8496 44.698 55.8496 40.5781C55.8496 40.0812 55.7976 39.5947 55.704 39.1186C58.7206 37.8764 60.8427 34.9158 60.8427 31.4688Z" fill="#2D3436"/>
</svg>
