<svg width="64" height="64" viewBox="0 0 64 64" fill="none" xmlns="http://www.w3.org/2000/svg">
<path d="M56.9829 47.1999C51.6563 54.1379 54.3206 60.0019 56.194 62.9419C56.9829 64.0039 55.9224 64.0039 55.3931 64.0039C53.2168 63.608 51.1463 62.7637 49.3129 61.5247C47.4794 60.2856 45.9229 58.6788 44.7419 56.8059C44.2126 56.5339 43.941 56.2759 43.4098 56.5339C39.6729 57.6079 35.9501 58.3979 31.9556 58.1399C14.374 58.1399 0 45.3379 0 29.3379C0 13.3379 14.374 0.00390625 31.9556 0.00390625C49.5372 0.00390625 63.9113 13.0659 63.9113 29.3379C63.9113 36.0039 61.249 42.1399 56.9829 47.2019V47.1999ZM31.9556 37.3359L40.4738 43.1999C40.6463 43.3031 40.8444 43.3555 41.0453 43.3509C41.2462 43.3463 41.4417 43.285 41.6093 43.174C41.7769 43.063 41.9098 42.9069 41.9926 42.7236C42.0755 42.5403 42.1049 42.3373 42.0776 42.1379L38.884 32.0019L47.1306 25.6079C47.2212 25.4724 47.2798 25.318 47.3018 25.1564C47.3238 24.9948 47.3087 24.8303 47.2577 24.6754C47.2067 24.5206 47.121 24.3794 47.0073 24.2627C46.8935 24.146 46.7547 24.0568 46.6013 24.0019H36.2217L32.7565 13.8659C32.6554 13.7533 32.5317 13.6633 32.3936 13.6016C32.2554 13.54 32.1059 13.5081 31.9547 13.5081C31.8034 13.5081 31.6539 13.54 31.5157 13.6016C31.3776 13.6633 31.2539 13.7533 31.1528 13.8659L27.6876 24.0019H17.0364C16.8546 24.068 16.6944 24.1824 16.5728 24.333C16.4512 24.4835 16.373 24.6644 16.3465 24.8561C16.32 25.0479 16.3462 25.2433 16.4224 25.4212C16.4986 25.5991 16.6217 25.7529 16.7787 25.8659L24.7676 32.2739L22.1053 42.1379C22.101 42.3031 22.1351 42.4671 22.2048 42.6169C22.2746 42.7667 22.3781 42.8983 22.5072 43.0012C22.6363 43.1042 22.7876 43.1757 22.949 43.2102C23.1104 43.2446 23.2776 43.2411 23.4375 43.1999L31.9556 37.3359Z" fill="#2D3436"/>
</svg>
