<svg width="65" height="64" viewBox="0 0 65 64" fill="none" xmlns="http://www.w3.org/2000/svg">
<path d="M64.0298 12V52C64.0298 55.3095 62.8588 58.1369 60.5168 60.4821C58.1749 62.8274 55.3514 64 52.0465 64H12.1019C8.79696 64 5.9735 62.8274 3.63151 60.4821C1.28952 58.1369 0.11853 55.3095 0.11853 52V12C0.11853 8.69048 1.28952 5.8631 3.63151 3.51786C5.9735 1.17262 8.79696 0 12.1019 0H52.0465C55.3514 0 58.1749 1.17262 60.5168 3.51786C62.8588 5.8631 64.0298 8.69048 64.0298 12ZM28.7217 42.6786L50.3702 21.4643C51.0835 20.7024 51.4402 19.7738 51.4402 18.6786V13.3214C51.4402 12.5833 51.1786 11.9583 50.6555 11.4464C50.1324 10.9345 49.5024 10.6786 48.7653 10.6786H15.3831C14.646 10.6786 14.0159 10.9345 13.4928 11.4464C12.9697 11.9583 12.7082 12.5833 12.7082 13.3214V18.6786C12.7082 19.4167 12.9697 20.0417 13.4928 20.5536C14.0159 21.0655 14.646 21.3214 15.3831 21.3214H35.4267L13.7425 42.5357C13.053 43.2976 12.7082 44.2262 12.7082 45.3214V50.6786C12.7082 51.4167 12.9697 52.0417 13.4928 52.5536C14.0159 53.0655 14.6341 53.3214 15.3474 53.3214H48.7653C49.4786 53.3214 50.1027 53.0595 50.6377 52.5357C51.1727 52.0119 51.4402 51.3929 51.4402 50.6786V45.3214C51.4402 44.6071 51.1727 43.9881 50.6377 43.4643C50.1027 42.9405 49.4786 42.6786 48.7653 42.6786H28.7217Z" fill="#2D3436"/>
</svg>
