<svg width="65" height="64" viewBox="0 0 65 64" fill="none" xmlns="http://www.w3.org/2000/svg">
<path d="M32.5186 0.444336C41.2472 0.444336 48.6937 3.53076 54.858 9.7036C61.0222 15.8764 64.1044 23.3085 64.1044 31.9999C64.1044 40.6912 61.0222 48.1233 54.858 54.2962C48.6937 60.469 41.2472 63.5554 32.5186 63.5554C23.79 63.5554 16.3435 60.469 10.1792 54.2962C4.01494 48.1233 0.9328 40.6912 0.9328 31.9999C0.9328 23.3085 4.01494 15.8764 10.1792 9.7036C16.3435 3.53076 23.79 0.444336 32.5186 0.444336ZM19.8695 49.3332C22.0393 49.3332 23.8886 48.5678 25.4173 47.0369C26.9461 45.5061 27.7104 43.6542 27.7104 41.4814C27.7104 39.3085 26.9461 37.4567 25.4173 35.9258C23.8886 34.395 22.0393 33.6295 19.8695 33.6295C17.6997 33.6295 15.8504 34.395 14.3216 35.9258C12.7929 37.4567 12.0285 39.3085 12.0285 41.4814C12.0285 43.6542 12.7929 45.5061 14.3216 47.0369C15.8504 48.5678 17.6997 49.3332 19.8695 49.3332ZM24.6036 19.4073C24.6036 21.5801 25.368 23.432 26.8968 24.9629C28.4255 26.4937 30.2748 27.2592 32.4446 27.2592C34.6144 27.2592 36.4884 26.4937 38.0664 24.9629C39.6445 23.432 40.4335 21.5801 40.4335 19.4073C40.4335 17.2345 39.6445 15.3579 38.0664 13.7777C36.4884 12.1974 34.6144 11.4073 32.4446 11.4073C30.2748 11.4073 28.4255 12.1974 26.8968 13.7777C25.368 15.3579 24.6036 17.2345 24.6036 19.4073ZM45.1677 49.3332C47.3375 49.3332 49.1868 48.5678 50.7156 47.0369C52.2443 45.5061 53.0087 43.6542 53.0087 41.4814C53.0087 39.3085 52.2443 37.4567 50.7156 35.9258C49.1868 34.395 47.3375 33.6295 45.1677 33.6295C42.9979 33.6295 41.1239 34.395 39.5459 35.9258C37.9678 37.4567 37.1788 39.3085 37.1788 41.4814C37.1788 43.6542 37.9678 45.5061 39.5459 47.0369C41.1239 48.5678 42.9979 49.3332 45.1677 49.3332Z" fill="#2D3436"/>
</svg>
