<svg width="75" height="75" viewBox="0 0 75 75" fill="none" xmlns="http://www.w3.org/2000/svg">
<g clip-path="url(#clip0)">
<path d="M75 20.6792V54.3208C75 60.1743 70.2378 64.9365 64.3857 64.9365H10.6143C4.76221 64.9365 0 60.1743 0 54.3208V20.6792C0 14.8257 4.76221 10.0635 10.6143 10.0635H64.3857C70.2378 10.0635 75 14.8257 75 20.6792Z" fill="#6AA9FF"/>
<path d="M75 20.6792V54.3208C75 60.1743 70.2378 64.9365 64.3857 64.9365H37.5V10.0635H64.3857C70.2378 10.0635 75 14.8257 75 20.6792Z" fill="#4987EA"/>
<path d="M21.4104 51.1557L9.92605 39.6713C9.06794 38.8132 9.06794 37.4221 9.92605 36.564L22.6457 23.8443C23.5037 22.9862 24.895 22.9862 25.7531 23.8443C26.6112 24.7024 26.6112 26.0936 25.7531 26.9517L14.5872 38.1176L24.5178 48.0483C25.3759 48.9065 25.3759 50.2976 24.5178 51.1557C23.6598 52.0138 22.2685 52.014 21.4104 51.1557Z" fill="#F0F7FF"/>
<path d="M49.2469 51.1557C48.3887 50.2976 48.3887 48.9064 49.2469 48.0483L60.4128 36.8823L50.4822 26.9515C49.6241 26.0934 49.6241 24.7022 50.4822 23.8441C51.3401 22.986 52.7314 22.986 53.5895 23.8441L65.0739 35.3285C65.932 36.1866 65.932 37.5778 65.0739 38.4359L52.3542 51.1556C51.4964 52.0138 50.105 52.014 49.2469 51.1557Z" fill="#DFE7F4"/>
<path d="M45.3426 21.7822L37.4998 43.9893L33.7234 54.6812C33.3145 55.8366 32.0472 56.4248 30.9197 56.0215C29.7757 55.6172 29.1751 54.3618 29.5794 53.2178L37.4998 30.791L41.1985 20.3189C41.6028 19.1748 42.8582 18.5742 44.0022 18.9785C45.1463 19.3828 45.7469 20.6382 45.3426 21.7822Z" fill="#F0F7FF"/>
<path d="M45.3427 21.7822L37.5 43.9893V30.791L41.1987 20.3189C41.603 19.1748 42.8584 18.5742 44.0024 18.9785C45.1464 19.3828 45.747 20.6382 45.3427 21.7822Z" fill="#DFE7F4"/>
</g>
<defs>
<clipPath id="clip0">
<rect width="75" height="75" fill="white"/>
</clipPath>
</defs>
</svg>
