<svg width="70" height="70" viewBox="0 0 70 70" fill="none" xmlns="http://www.w3.org/2000/svg">
<path d="M34.9999 0C21.4093 0 10.353 11.2301 10.353 25.0331V44.9676C10.353 58.7706 21.4093 70 34.9999 70C48.5896 70 59.6467 58.8046 59.6467 45.0442V25.0331C59.6467 11.2301 48.5896 0 34.9999 0ZM55.0108 45.0442C55.0108 56.2488 46.0344 65.3643 34.9999 65.3643C23.966 65.3643 14.9889 56.2141 14.9889 44.9669V25.0331C14.9889 13.7859 23.966 4.63572 34.9999 4.63572C46.0346 4.63572 55.0108 13.7859 55.0108 25.0331V45.0442Z" fill="white"/>
<path d="M35.0001 19.1611C33.7198 19.1611 32.6821 20.3821 32.6821 21.8884V31.4338C32.6821 32.9402 33.7198 34.1611 35.0001 34.1611C36.2803 34.1611 37.318 32.9402 37.318 31.4338V21.8884C37.318 20.3821 36.2803 19.1611 35.0001 19.1611Z" fill="white"/>
</svg>
