<svg width="64" height="64" viewBox="0 0 64 64" fill="none" xmlns="http://www.w3.org/2000/svg">
<path d="M32 4C16.5375 4 4 16.5375 4 32C4 47.4625 16.5375 60 32 60C47.4625 60 60 47.4625 60 32C60 16.5375 47.4625 4 32 4ZM18 26.3125C18.016 25.5275 18.3391 24.78 18.9 24.2304C19.4609 23.6809 20.2148 23.3731 21 23.3731C21.7852 23.3731 22.5391 23.6809 23.1 24.2304C23.6609 24.78 23.984 25.5275 24 26.3125C23.984 27.0975 23.6609 27.845 23.1 28.3946C22.5391 28.9441 21.7852 29.2519 21 29.2519C20.2148 29.2519 19.4609 28.9441 18.9 28.3946C18.3391 27.845 18.016 27.0975 18 26.3125ZM32 43.3125C26.6562 43.3125 22.275 39.1063 22 33.8375C21.9966 33.7698 22.007 33.7021 22.0306 33.6385C22.0542 33.5749 22.0905 33.5168 22.1373 33.4677C22.1841 33.4186 22.2404 33.3795 22.3027 33.3528C22.3651 33.3261 22.4322 33.3124 22.5 33.3125H25.5063C25.7688 33.3125 25.9938 33.5125 26.0125 33.775C26.25 36.8688 28.8438 39.3125 32 39.3125C35.1562 39.3125 37.7562 36.8688 37.9875 33.775C38.0062 33.5125 38.2313 33.3125 38.4938 33.3125H41.5C41.5678 33.3124 41.6349 33.3261 41.6973 33.3528C41.7596 33.3795 41.8159 33.4186 41.8627 33.4677C41.9095 33.5168 41.9458 33.5749 41.9694 33.6385C41.993 33.7021 42.0034 33.7698 42 33.8375C41.725 39.1063 37.3438 43.3125 32 43.3125ZM43 29.3125C42.215 29.2965 41.4675 28.9734 40.9179 28.4125C40.3684 27.8516 40.0606 27.0977 40.0606 26.3125C40.0606 25.5273 40.3684 24.7734 40.9179 24.2125C41.4675 23.6516 42.215 23.3285 43 23.3125C43.785 23.3285 44.5325 23.6516 45.0821 24.2125C45.6316 24.7734 45.9394 25.5273 45.9394 26.3125C45.9394 27.0977 45.6316 27.8516 45.0821 28.4125C44.5325 28.9734 43.785 29.2965 43 29.3125Z" fill="black"/>
</svg>
