<svg xmlns="http://www.w3.org/2000/svg" width="120.219" height="24.219" viewBox="0 0 120.219 24.219">
  <defs>
    <style>
      .cls-1 {
        fill: #ffdf53;
        fill-rule: evenodd;
      }
    </style>
  </defs>
  <path id="Стрелочки" class="cls-1" d="M595.524,612.993l-52.238-12.887a16.151,16.151,0,0,0-6.54,0c-1.806.445-1.806,1.167,0,1.613l55.508,13.694a16.151,16.151,0,0,0,6.54,0L654.3,601.719c1.775-.453,1.724-1.175-0.114-1.613a16.278,16.278,0,0,0-6.426,0Zm0,8.229-52.238-12.887a16.151,16.151,0,0,0-6.54,0c-1.806.446-1.806,1.168,0,1.614l55.508,13.694a16.186,16.186,0,0,0,6.54,0L654.3,609.949c1.775-.454,1.724-1.176-0.114-1.614a16.278,16.278,0,0,0-6.426,0Z" transform="translate(-535.406 -599.781)"/>
</svg>
